<svg width="100" height="100" viewBox="0 0 45 45" fill="none" xmlns="http://www.w3.org/2000/svg">
  <path d="M22.3274 45C34.6611 45 44.6547 34.9254 44.6547 22.5C44.6547 10.0746 34.6611 0 22.3274 0C9.99727 0 0 10.0746 0 22.5C0 34.9254 9.99727 45 22.3274 45Z" fill="#191919"/>
  <path d="M37.0485 22.5C37.0485 15.033 31.3747 8.87529 24.1397 8.1858C23.4119 8.11612 22.7823 8.70659 22.7823 9.44375V14.8936C22.7823 15.5061 23.2153 16.0379 23.8158 16.1369C26.851 16.6357 29.1802 19.2983 29.1802 22.5C29.1802 25.698 26.851 28.3643 23.8158 28.8631C23.2153 28.9584 22.7823 29.4902 22.7823 30.1027V35.5526C22.7823 36.2934 23.4119 36.8839 24.1397 36.8142C31.3747 36.121 37.0485 29.967 37.0485 22.5Z" fill="white"/>
  <path d="M22.775 22.5C22.775 19.6284 20.464 17.2995 17.6108 17.2995C14.7575 17.2995 12.4466 19.6284 12.4466 22.5C12.4466 25.3753 14.7575 27.7042 17.6108 27.7042C20.464 27.7042 22.775 25.3753 22.775 22.5Z" fill="#17D7C0"/>
</svg>
