<svg id="visual" viewBox="0 0 900 600" width="900" height="600" xmlns="http://www.w3.org/2000/svg" xmlns:xlink="http://www.w3.org/1999/xlink" version="1.1"><rect x="0" y="0" width="900" height="600" fill="#012B3C"></rect><path d="M0 284L129 284L129 355L257 355L257 365L386 365L386 262L514 262L514 305L643 305L643 367L771 367L771 254L900 254L900 253L900 601L900 601L771 601L771 601L643 601L643 601L514 601L514 601L386 601L386 601L257 601L257 601L129 601L129 601L0 601Z" fill="#bf6415"></path><path d="M0 366L129 366L129 462L257 462L257 346L386 346L386 369L514 369L514 399L643 399L643 443L771 443L771 375L900 375L900 432L900 601L900 601L771 601L771 601L643 601L643 601L514 601L514 601L386 601L386 601L257 601L257 601L129 601L129 601L0 601Z" fill="#722400"></path><path d="M0 469L129 469L129 483L257 483L257 545L386 545L386 478L514 478L514 453L643 453L643 467L771 467L771 482L900 482L900 453L900 601L900 601L771 601L771 601L643 601L643 601L514 601L514 601L386 601L386 601L257 601L257 601L129 601L129 601L0 601Z" fill="#000000"></path></svg>