<svg id="visual" viewBox="0 0 900 600" width="900" height="600" xmlns="http://www.w3.org/2000/svg" xmlns:xlink="http://www.w3.org/1999/xlink" version="1.1"><path d="M0 61L82 61L82 73L164 73L164 61L245 61L245 79L327 79L327 97L409 97L409 61L491 61L491 79L573 79L573 97L655 97L655 55L736 55L736 91L818 91L818 103L900 103L900 91L900 0L900 0L818 0L818 0L736 0L736 0L655 0L655 0L573 0L573 0L491 0L491 0L409 0L409 0L327 0L327 0L245 0L245 0L164 0L164 0L82 0L82 0L0 0Z" fill="#176998"></path><path d="M0 109L82 109L82 127L164 127L164 109L245 109L245 151L327 151L327 139L409 139L409 97L491 97L491 163L573 163L573 169L655 169L655 115L736 115L736 181L818 181L818 169L900 169L900 151L900 89L900 101L818 101L818 89L736 89L736 53L655 53L655 95L573 95L573 77L491 77L491 59L409 59L409 95L327 95L327 77L245 77L245 59L164 59L164 71L82 71L82 59L0 59Z" fill="#0d5582"></path><path d="M0 175L82 175L82 205L164 205L164 181L245 181L245 211L327 211L327 193L409 193L409 163L491 163L491 235L573 235L573 205L655 205L655 181L736 181L736 223L818 223L818 229L900 229L900 211L900 149L900 167L818 167L818 179L736 179L736 113L655 113L655 167L573 167L573 161L491 161L491 95L409 95L409 137L327 137L327 149L245 149L245 107L164 107L164 125L82 125L82 107L0 107Z" fill="#04416d"></path><path d="M0 373L82 373L82 379L164 379L164 295L245 295L245 349L327 349L327 373L409 373L409 349L491 349L491 325L573 325L573 331L655 331L655 307L736 307L736 421L818 421L818 337L900 337L900 421L900 209L900 227L818 227L818 221L736 221L736 179L655 179L655 203L573 203L573 233L491 233L491 161L409 161L409 191L327 191L327 209L245 209L245 179L164 179L164 203L82 203L82 173L0 173Z" fill="#002e57"></path><path d="M0 493L82 493L82 469L164 469L164 391L245 391L245 403L327 403L327 487L409 487L409 409L491 409L491 427L573 427L573 421L655 421L655 391L736 391L736 493L818 493L818 391L900 391L900 499L900 419L900 335L818 335L818 419L736 419L736 305L655 305L655 329L573 329L573 323L491 323L491 347L409 347L409 371L327 371L327 347L245 347L245 293L164 293L164 377L82 377L82 371L0 371Z" fill="#001c41"></path><path d="M0 601L82 601L82 601L164 601L164 601L245 601L245 601L327 601L327 601L409 601L409 601L491 601L491 601L573 601L573 601L655 601L655 601L736 601L736 601L818 601L818 601L900 601L900 601L900 497L900 389L818 389L818 491L736 491L736 389L655 389L655 419L573 419L573 425L491 425L491 407L409 407L409 485L327 485L327 401L245 401L245 389L164 389L164 467L82 467L82 491L0 491Z" fill="#000000"></path></svg>